<svg width="45" height="34" viewBox="0 0 45 34" fill="none" xmlns="http://www.w3.org/2000/svg">
<path d="M40.7812 1.0625H4.21878C1.8924 1.0625 0 2.84977 0 5.0469V28.9531C0 31.1503 1.8924 32.9375 4.21878 32.9375H40.7812C43.1076 32.9375 45 31.1503 45 28.9531V5.0469C45 2.84977 43.1076 1.0625 40.7812 1.0625ZM40.7812 3.71874C40.9723 3.71874 41.154 3.75618 41.3202 3.82156L22.5 19.227L3.67969 3.82156C3.84586 3.75627 4.02762 3.71874 4.21869 3.71874H40.7812ZM40.7812 30.2812H4.21878C3.44288 30.2812 2.81249 29.6859 2.81249 28.9531V6.62791L21.5785 21.9882C21.8436 22.2048 22.1718 22.3125 22.5 22.3125C22.8282 22.3125 23.1564 22.2049 23.4215 21.9882L42.1875 6.62791V28.9531C42.1874 29.6859 41.5571 30.2812 40.7812 30.2812Z" fill="white"/>
</svg>
