<svg width="45" height="57" viewBox="0 0 45 57" fill="none" xmlns="http://www.w3.org/2000/svg">
<path d="M21.0897 56.2563C21.4041 56.7209 21.9334 57 22.5001 57C23.0668 57 23.5961 56.721 23.9104 56.2563C27.9219 50.3284 33.8305 43.0074 37.9478 35.5617C41.24 29.6083 42.8405 24.5307 42.8405 20.0391C42.8405 8.98952 33.7158 0 22.5001 0C11.2844 0 2.15967 8.98952 2.15967 20.0391C2.15967 24.5307 3.76012 29.6083 7.05233 35.5617C11.1666 43.0017 17.0865 50.3407 21.0897 56.2563ZM22.5001 3.33984C31.8465 3.33984 39.4504 10.8311 39.4504 20.0391C39.4504 23.9583 37.9851 28.5131 34.9709 33.9639C31.4218 40.3818 26.3573 46.8922 22.5001 52.3653C18.6434 46.893 13.5785 40.3822 10.0293 33.9639C7.01504 28.5131 5.54974 23.9583 5.54974 20.0391C5.54974 10.8311 13.1537 3.33984 22.5001 3.33984Z" fill="white"/>
<path d="M22.5003 30.0586C28.1081 30.0586 32.6705 25.5638 32.6705 20.0391C32.6705 14.5143 28.1081 10.0195 22.5003 10.0195C16.8924 10.0195 12.3301 14.5143 12.3301 20.0391C12.3301 25.5638 16.8924 30.0586 22.5003 30.0586ZM22.5003 13.3594C26.2388 13.3594 29.2804 16.3559 29.2804 20.0391C29.2804 23.7222 26.2388 26.7188 22.5003 26.7188C18.7617 26.7188 15.7201 23.7222 15.7201 20.0391C15.7201 16.3559 18.7617 13.3594 22.5003 13.3594Z" fill="white"/>
</svg>
