<svg width="45" height="45" viewBox="0 0 45 45" fill="none" xmlns="http://www.w3.org/2000/svg">
<g clip-path="url(#clip0_216_1271)">
<path d="M9.16957 29.913C13.608 35.2186 18.951 39.396 25.0492 42.3518C27.371 43.4521 30.476 44.7576 33.9354 44.9813C34.1499 44.9907 34.355 45 34.5695 45C36.8913 45 38.7562 44.1981 40.2761 42.5477C40.2854 42.5383 40.3041 42.5197 40.3134 42.501C40.8542 41.8483 41.4696 41.2609 42.113 40.6361C42.5513 40.2165 42.9988 39.7783 43.4278 39.3307C45.4139 37.2607 45.4139 34.6312 43.4091 32.6264L37.8051 27.0224C36.854 26.034 35.7164 25.5118 34.5229 25.5118C33.3293 25.5118 32.1824 26.034 31.2033 27.0131L27.8652 30.3512C27.5575 30.1741 27.2404 30.0155 26.9421 29.8663C26.5691 29.6799 26.2241 29.5027 25.9164 29.3069C22.8766 27.3767 20.1165 24.8591 17.4777 21.6235C16.1443 19.9358 15.2491 18.5184 14.6244 17.0731C15.5009 16.2806 16.3215 15.4507 17.114 14.6395C17.3938 14.3504 17.6828 14.0613 17.9719 13.7723C18.9789 12.7652 19.5198 11.5997 19.5198 10.4155C19.5198 9.23125 18.9883 8.06569 17.9719 7.05864L15.1932 4.27994C14.8668 3.95358 14.5591 3.63655 14.2421 3.31019C13.6267 2.67613 12.9833 2.02341 12.3492 1.43597C11.3888 0.494198 10.2605 0 9.067 0C7.88279 0 6.7452 0.494198 5.74748 1.4453L2.26012 4.93266C0.991991 6.20079 0.274005 7.73933 0.124813 9.52031C-0.0523523 11.7489 0.357925 14.1173 1.42092 16.9799C3.0527 21.409 5.51437 25.5211 9.16957 29.913ZM2.39999 9.71612C2.51188 8.47596 2.98743 7.44094 3.88258 6.54579L7.35129 3.07708C7.89212 2.55491 8.48888 2.2845 9.067 2.2845C9.6358 2.2845 10.2139 2.55491 10.7454 3.09573C11.3702 3.67385 11.9576 4.27994 12.5917 4.92333C12.9087 5.24969 13.235 5.57605 13.5614 5.91173L16.3401 8.69043C16.9182 9.26855 17.2166 9.85599 17.2166 10.4341C17.2166 11.0122 16.9182 11.5997 16.3401 12.1778C16.051 12.4668 15.762 12.7652 15.4729 13.0543C14.6058 13.9308 13.7945 14.7607 12.8994 15.5533C12.8807 15.5719 12.8714 15.5812 12.8527 15.5999C12.0788 16.3738 12.2 17.1104 12.3865 17.6699C12.3958 17.6979 12.4052 17.7165 12.4145 17.7445C13.1325 19.4695 14.1302 21.1107 15.6874 23.0688C18.4847 26.5189 21.4313 29.195 24.6762 31.2557C25.0772 31.5168 25.5061 31.7219 25.907 31.9271C26.28 32.1136 26.625 32.2907 26.9327 32.4865C26.97 32.5052 26.998 32.5238 27.0353 32.5425C27.343 32.701 27.6414 32.7756 27.9398 32.7756C28.6857 32.7756 29.1706 32.3 29.3291 32.1415L32.8165 28.6542C33.3573 28.1133 33.9447 27.8243 34.5229 27.8243C35.2315 27.8243 35.8096 28.2625 36.1733 28.6542L41.796 34.2675C42.9149 35.3864 42.9056 36.5986 41.768 37.7828C41.3764 38.2024 40.9661 38.6034 40.5278 39.023C39.8751 39.6571 39.1944 40.3098 38.579 41.0464C37.5067 42.2027 36.2292 42.7435 34.5788 42.7435C34.4203 42.7435 34.2525 42.7341 34.0939 42.7248C31.0355 42.529 28.1915 41.3355 26.0562 40.3191C20.2564 37.5124 15.1652 33.5309 10.9412 28.477C7.46319 24.2903 5.12274 20.3927 3.57488 16.2153C2.61445 13.6511 2.2508 11.5903 2.39999 9.71612Z" fill="white"/>
</g>
<defs>
<clipPath id="clip0_216_1271">
<rect width="45" height="45" fill="white"/>
</clipPath>
</defs>
</svg>
